<svg viewBox="0 0 1200 800" xmlns="http://www.w3.org/2000/svg">
  <defs>
    <linearGradient id="bgGradient" x1="0%" y1="0%" x2="100%" y2="100%">
      <stop offset="0%" style="stop-color:#0B0F14;stop-opacity:1" />
      <stop offset="50%" style="stop-color:#111827;stop-opacity:1" />
      <stop offset="100%" style="stop-color:#1F2937;stop-opacity:1" />
    </linearGradient>
    <linearGradient id="accentGradient" x1="0%" y1="0%" x2="100%" y2="100%">
      <stop offset="0%" style="stop-color:#84CC16;stop-opacity:0.1" />
      <stop offset="100%" style="stop-color:#65A30D;stop-opacity:0.05" />
    </linearGradient>
  </defs>

  <!-- Background -->
  <rect width="1200" height="800" fill="url(#bgGradient)"/>

  <!-- Isometric Grid Pattern -->
  <g opacity="0.05" stroke="#84CC16" stroke-width="0.5" fill="none">
    <!-- Horizontal lines -->
    <g>
      <line x1="0" y1="100" x2="1200" y2="100"/>
      <line x1="0" y1="200" x2="1200" y2="200"/>
      <line x1="0" y1="300" x2="1200" y2="300"/>
      <line x1="0" y1="400" x2="1200" y2="400"/>
      <line x1="0" y1="500" x2="1200" y2="500"/>
      <line x1="0" y1="600" x2="1200" y2="600"/>
      <line x1="0" y1="700" x2="1200" y2="700"/>
    </g>
    <!-- Diagonal lines (left to right) -->
    <g>
      <line x1="0" y1="0" x2="600" y2="300"/>
      <line x1="100" y1="0" x2="700" y2="300"/>
      <line x1="200" y1="0" x2="800" y2="300"/>
      <line x1="300" y1="0" x2="900" y2="300"/>
      <line x1="400" y1="0" x2="1000" y2="300"/>
      <line x1="500" y1="0" x2="1100" y2="300"/>
      <line x1="600" y1="0" x2="1200" y2="300"/>
      <line x1="0" y1="100" x2="500" y2="400"/>
      <line x1="100" y1="100" x2="600" y2="400"/>
      <line x1="200" y1="100" x2="700" y2="400"/>
      <line x1="300" y1="100" x2="800" y2="400"/>
      <line x1="400" y1="100" x2="900" y2="400"/>
      <line x1="500" y1="100" x2="1000" y2="400"/>
      <line x1="600" y1="100" x2="1100" y2="400"/>
      <line x1="700" y1="100" x2="1200" y2="400"/>
    </g>
    <!-- Diagonal lines (right to left) -->
    <g>
      <line x1="600" y1="0" x2="0" y2="300"/>
      <line x1="700" y1="0" x2="100" y2="300"/>
      <line x1="800" y1="0" x2="200" y2="300"/>
      <line x1="900" y1="0" x2="300" y2="300"/>
      <line x1="1000" y1="0" x2="400" y2="300"/>
      <line x1="1100" y1="0" x2="500" y2="300"/>
      <line x1="1200" y1="0" x2="600" y2="300"/>
      <line x1="700" y1="100" x2="200" y2="400"/>
      <line x1="800" y1="100" x2="300" y2="400"/>
      <line x1="900" y1="100" x2="400" y2="400"/>
      <line x1="1000" y1="100" x2="500" y2="400"/>
      <line x1="1100" y1="100" x2="600" y2="400"/>
      <line x1="1200" y1="100" x2="700" y2="400"/>
    </g>
  </g>

  <!-- Isometric Tech Elements -->
  <!-- Code blocks -->
  <g opacity="0.08" fill="#84CC16">
    <rect x="150" y="150" width="80" height="60" transform="skewY(-15)"/>
    <rect x="180" y="180" width="60" height="40" transform="skewY(-15)"/>
    <rect x="200" y="200" width="40" height="30" transform="skewY(-15)"/>
  </g>

  <!-- Circuit patterns -->
  <g opacity="0.06" stroke="#84CC16" stroke-width="1" fill="none">
    <circle cx="400" cy="200" r="25"/>
    <circle cx="450" cy="180" r="15"/>
    <circle cx="500" cy="220" r="20"/>
    <line x1="425" y1="200" x2="435" y2="180"/>
    <line x1="475" y1="180" x2="480" y2="220"/>
  </g>

  <!-- Geometric shapes -->
  <g opacity="0.04" fill="url(#accentGradient)">
    <polygon points="800,300 850,250 900,300 850,350"/>
    <polygon points="850,400 900,350 950,400 900,450"/>
    <polygon points="700,500 750,450 800,500 750,550"/>
  </g>

  <!-- Data visualization elements -->
  <g opacity="0.06" stroke="#84CC16" stroke-width="1.5" fill="none">
    <polyline points="950,150 970,130 990,160 1010,140 1030,170"/>
    <polyline points="950,180 970,160 990,190 1010,170 1030,200"/>
    <circle cx="970" cy="130" r="3" fill="#84CC16"/>
    <circle cx="1010" cy="140" r="3" fill="#84CC16"/>
    <circle cx="1030" cy="170" r="3" fill="#84CC16"/>
  </g>

  <!-- AI/Neural network inspired -->
  <g opacity="0.05" stroke="#84CC16" stroke-width="0.8" fill="#84CC16">
    <circle cx="100" cy="500" r="4"/>
    <circle cx="150" cy="480" r="4"/>
    <circle cx="200" cy="520" r="4"/>
    <circle cx="250" cy="500" r="4"/>
    <line x1="100" y1="500" x2="150" y2="480"/>
    <line x1="150" y1="480" x2="200" y2="520"/>
    <line x1="200" y1="520" x2="250" y2="500"/>
    <line x1="100" y1="500" x2="200" y2="520"/>
    <line x1="150" y1="480" x2="250" y2="500"/>
  </g>

  <!-- Floating particles -->
  <g opacity="0.03" fill="#84CC16">
    <circle cx="300" cy="100" r="2"/>
    <circle cx="500" cy="80" r="1.5"/>
    <circle cx="700" cy="120" r="2"/>
    <circle cx="900" cy="90" r="1"/>
    <circle cx="1100" cy="110" r="1.5"/>
    <circle cx="350" cy="600" r="1"/>
    <circle cx="550" cy="620" r="1.5"/>
    <circle cx="750" cy="580" r="2"/>
    <circle cx="950" cy="610" r="1"/>
  </g>
</svg>